<svg width="983" height="765" viewBox="0 0 983 765" fill="none" xmlns="http://www.w3.org/2000/svg">
<g clip-path="url(#clip0)">
<path d="M559.689 374.084C581.797 374.084 599.719 356.162 599.719 334.054C599.719 311.946 581.797 294.024 559.689 294.024C537.582 294.024 519.66 311.946 519.66 334.054C519.66 356.162 537.582 374.084 559.689 374.084Z" fill="#444C55"/>
<path opacity="0.6" d="M961.029 447.199C1068.01 565.508 757.892 736.007 507.31 736.007C256.727 736.007 83.3634 603.9 53.59 447.199C-18.6001 67.252 668.667 -174.24 507.31 158.391C272.112 643.239 876.78 354.029 961.029 447.199Z" fill="#444C55"/>
<path d="M913.029 475.199C1020.01 593.508 709.892 764.007 459.31 764.007C208.727 764.007 35.3634 631.9 5.59002 475.199C-66.6001 95.252 620.667 -146.24 459.31 186.391C224.112 671.239 828.78 382.029 913.029 475.199Z" fill="#18181B"/>
<path d="M149.85 197.818C74.7826 194.513 16.5787 178.32 17.3434 160.954C17.8018 150.542 39.0466 142.17 75.6302 137.984C75.7611 137.968 75.8939 137.979 76.0208 138.014C76.1478 138.05 76.2665 138.11 76.37 138.192C76.4735 138.274 76.5599 138.375 76.624 138.49C76.6882 138.606 76.729 138.732 76.744 138.863C76.7589 138.994 76.7479 139.127 76.7114 139.254C76.6749 139.381 76.6136 139.499 76.5312 139.602C76.4488 139.705 76.3469 139.79 76.2312 139.854C76.1156 139.917 75.9886 139.957 75.8574 139.971C41.3957 143.914 19.7401 151.988 19.3414 161.042C18.6499 176.746 78.4557 192.673 149.938 195.82C221.42 198.968 282.394 188.359 283.086 172.655C283.486 163.563 262.489 153.589 228.288 146.626C228.159 146.6 228.036 146.549 227.927 146.476C227.818 146.403 227.724 146.308 227.652 146.199C227.579 146.089 227.528 145.966 227.503 145.837C227.478 145.708 227.479 145.575 227.505 145.446C227.531 145.317 227.583 145.195 227.656 145.086C227.73 144.977 227.824 144.883 227.934 144.811C228.044 144.738 228.167 144.688 228.296 144.664C228.426 144.639 228.558 144.64 228.687 144.666C264.988 152.057 285.544 162.29 285.084 172.743C284.319 190.109 224.917 201.123 149.85 197.818Z" fill="#0891B2"/>
<path d="M83.1792 200.727C89.459 212.657 98.7616 222.728 110.156 229.933C121.551 237.139 134.638 241.225 148.108 241.784C161.577 242.343 174.958 239.355 186.911 233.119C198.863 226.883 208.968 217.617 216.215 206.249C171.802 206.847 127.39 205.004 83.1792 200.727V200.727Z" fill="#0891B2"/>
<path d="M224.519 185.214C228.298 173.878 229.387 161.817 227.7 149.987C226.012 138.158 221.595 126.883 214.796 117.056C207.998 107.229 199.005 99.1186 188.531 93.3676C178.056 87.6167 166.386 84.3827 154.446 83.9216C142.505 83.4605 130.621 85.7849 119.734 90.7109C108.847 95.6369 99.2558 103.029 91.7198 112.303C84.1838 121.577 78.9096 132.477 76.3148 144.141C73.72 155.806 73.8757 167.914 76.7696 179.508C125.565 187.792 175.23 189.709 224.519 185.214V185.214Z" fill="#0891B2"/>
<path d="M169.09 133.594C174.06 133.594 178.09 129.564 178.09 124.594C178.09 119.623 174.06 115.594 169.09 115.594C164.119 115.594 160.09 119.623 160.09 124.594C160.09 129.564 164.119 133.594 169.09 133.594Z" fill="white"/>
<path d="M122.77 168.584C131.054 168.584 137.77 161.869 137.77 153.584C137.77 145.3 131.054 138.584 122.77 138.584C114.486 138.584 107.77 145.3 107.77 153.584C107.77 161.869 114.486 168.584 122.77 168.584Z" fill="white"/>
<path d="M349.161 153.891C354.684 153.891 359.161 149.414 359.161 143.891C359.161 138.369 354.684 133.892 349.161 133.892C343.638 133.892 339.161 138.369 339.161 143.891C339.161 149.414 343.638 153.891 349.161 153.891Z" fill="#0891B2"/>
<path d="M123.161 459.891C126.475 459.891 129.161 457.205 129.161 453.891C129.161 450.577 126.475 447.891 123.161 447.891C119.847 447.891 117.161 450.577 117.161 453.891C117.161 457.205 119.847 459.891 123.161 459.891Z" fill="#E6E6E6"/>
<path d="M543.161 665.891C546.475 665.891 549.161 663.205 549.161 659.891C549.161 656.577 546.475 653.891 543.161 653.891C539.847 653.891 537.161 656.577 537.161 659.891C537.161 663.205 539.847 665.891 543.161 665.891Z" fill="#E6E6E6"/>
<path d="M152.161 343.891C153.818 343.891 155.161 342.548 155.161 340.891C155.161 339.234 153.818 337.891 152.161 337.891C150.504 337.891 149.161 339.234 149.161 340.891C149.161 342.548 150.504 343.891 152.161 343.891Z" fill="#E6E6E6"/>
<path d="M400.161 567.891C401.818 567.891 403.161 566.548 403.161 564.891C403.161 563.234 401.818 561.891 400.161 561.891C398.504 561.891 397.161 563.234 397.161 564.891C397.161 566.548 398.504 567.891 400.161 567.891Z" fill="#E6E6E6"/>
<path d="M851.161 538.891C852.818 538.891 854.161 537.548 854.161 535.891C854.161 534.234 852.818 532.891 851.161 532.891C849.504 532.891 848.161 534.234 848.161 535.891C848.161 537.548 849.504 538.891 851.161 538.891Z" fill="#E6E6E6"/>
<path d="M710.161 627.891C711.818 627.891 713.161 626.548 713.161 624.891C713.161 623.234 711.818 621.891 710.161 621.891C708.504 621.891 707.161 623.234 707.161 624.891C707.161 626.548 708.504 627.891 710.161 627.891Z" fill="#E6E6E6"/>
<path d="M563.161 519.891C564.818 519.891 566.161 518.548 566.161 516.891C566.161 515.234 564.818 513.891 563.161 513.891C561.504 513.891 560.161 515.234 560.161 516.891C560.161 518.548 561.504 519.891 563.161 519.891Z" fill="#E6E6E6"/>
<path d="M373.161 223.891C374.818 223.891 376.161 222.548 376.161 220.891C376.161 219.234 374.818 217.891 373.161 217.891C371.504 217.891 370.161 219.234 370.161 220.891C370.161 222.548 371.504 223.891 373.161 223.891Z" fill="#E6E6E6"/>
<path d="M397.161 75.8913C398.818 75.8913 400.161 74.5481 400.161 72.8912C400.161 71.2343 398.818 69.8911 397.161 69.8911C395.504 69.8911 394.161 71.2343 394.161 72.8912C394.161 74.5481 395.504 75.8913 397.161 75.8913Z" fill="#E6E6E6"/>
<path d="M383.161 698.891C384.818 698.891 386.161 697.548 386.161 695.891C386.161 694.234 384.818 692.891 383.161 692.891C381.504 692.891 380.161 694.234 380.161 695.891C380.161 697.548 381.504 698.891 383.161 698.891Z" fill="#E6E6E6"/>
<path d="M235.161 635.891C236.818 635.891 238.161 634.548 238.161 632.891C238.161 631.234 236.818 629.891 235.161 629.891C233.504 629.891 232.161 631.234 232.161 632.891C232.161 634.548 233.504 635.891 235.161 635.891Z" fill="#E6E6E6"/>
<path d="M704.161 527.891C705.818 527.891 707.161 526.548 707.161 524.891C707.161 523.234 705.818 521.891 704.161 521.891C702.504 521.891 701.161 523.234 701.161 524.891C701.161 526.548 702.504 527.891 704.161 527.891Z" fill="#E6E6E6"/>
<path d="M148.63 234.792C153.6 234.792 157.63 230.763 157.63 225.792C157.63 220.821 153.6 216.792 148.63 216.792C143.659 216.792 139.63 220.821 139.63 225.792C139.63 230.763 143.659 234.792 148.63 234.792Z" fill="white"/>
<path d="M295.161 388.892C311.177 388.892 324.161 375.908 324.161 359.892C324.161 343.875 311.177 330.892 295.161 330.892C279.145 330.892 266.161 343.875 266.161 359.892C266.161 375.908 279.145 388.892 295.161 388.892Z" fill="#0891B2"/>
<path d="M473.296 444.88C478.959 441.25 472.073 420.403 457.915 398.318C443.757 376.233 427.689 361.273 422.026 364.903C416.363 368.533 423.25 389.38 437.408 411.465C451.566 433.55 467.633 448.51 473.296 444.88Z" fill="#18181B"/>
</g>
<defs>
<clipPath id="clip0">
<rect width="982.487" height="763.014" fill="white" transform="translate(0.256348 0.993164)"/>
</clipPath>
</defs>
</svg>
